<svg xmlns="http://www.w3.org/2000/svg" viewBox="0 0 100 100">
  <defs>
    <linearGradient id="grad" x1="0%" y1="0%" x2="100%" y2="100%">
      <stop offset="0%" style="stop-color:#8b5cf6"/>
      <stop offset="100%" style="stop-color:#a855f7"/>
    </linearGradient>
  </defs>
  <rect width="100" height="100" rx="20" fill="url(#grad)"/>
  
  <!-- Neural network dots -->
  <circle cx="15" cy="25" r="2" fill="white" opacity="0.6"/>
  <circle cx="85" cy="25" r="2" fill="white" opacity="0.6"/>
  <circle cx="10" cy="50" r="1.5" fill="white" opacity="0.4"/>
  <circle cx="90" cy="50" r="1.5" fill="white" opacity="0.4"/>
  <circle cx="20" cy="15" r="1.5" fill="white" opacity="0.5"/>
  <circle cx="80" cy="15" r="1.5" fill="white" opacity="0.5"/>
  
  <!-- Neural lines -->
  <line x1="15" y1="25" x2="22" y2="22" stroke="white" stroke-width="0.5" opacity="0.4"/>
  <line x1="85" y1="25" x2="78" y2="22" stroke="white" stroke-width="0.5" opacity="0.4"/>
  
  <!-- Cat face -->
  <circle cx="50" cy="55" r="28" fill="white"/>
  <!-- Left ear -->
  <path d="M25 48 L22 22 L42 38 Z" fill="white"/>
  <!-- Right ear -->
  <path d="M75 48 L78 22 L58 38 Z" fill="white"/>
  <!-- Left eye - digital glow -->
  <circle cx="38" cy="52" r="5" fill="#8b5cf6"/>
  <circle cx="38" cy="52" r="2" fill="#c4b5fd"/>
  <!-- Right eye - digital glow -->
  <circle cx="62" cy="52" r="5" fill="#8b5cf6"/>
  <circle cx="62" cy="52" r="2" fill="#c4b5fd"/>
  <!-- Moon - centered -->
  <path d="M55 32 Q47 32 47 38 Q47 44 55 44 Q51 41 51 38 Q51 35 55 32" fill="#fbbf24"/>
  
  <!-- Sparkles near ears (AI thinking) -->
  <circle cx="18" cy="18" r="1" fill="#fbbf24"/>
  <circle cx="82" cy="18" r="1" fill="#fbbf24"/>
</svg>
